<?xml version="1.0" standalone="no"?>
<!DOCTYPE svg PUBLIC "-//W3C//DTD SVG 20010904//EN"
 "http://www.w3.org/TR/2001/REC-SVG-20010904/DTD/svg10.dtd">
<svg version="1.0" xmlns="http://www.w3.org/2000/svg"
 width="480.000000pt" height="480.000000pt" viewBox="0 0 480.000000 480.000000"
 preserveAspectRatio="xMidYMid meet">
<metadata>
Created by potrace 1.11, written by Peter Selinger 2001-2013
</metadata>
<g transform="translate(0.000000,480.000000) scale(0.100000,-0.100000)"
fill="#000000" stroke="none">
<path d="M572 4180 c-29 -10 -68 -28 -86 -39 -53 -33 -125 -117 -154 -179
l-27 -57 0 -1505 0 -1505 32 -66 c39 -80 120 -159 200 -197 l58 -27 1805 0
1805 0 66 32 c80 39 159 120 197 200 l27 58 0 1505 0 1505 -27 58 c-38 80
-117 161 -197 200 l-66 32 -1790 2 c-1738 2 -1792 2 -1843 -17z m1948 -1112
c186 -80 232 -328 88 -475 -182 -186 -501 -54 -501 207 0 215 214 354 413 268z
m78 -699 c111 -28 224 -92 308 -174 87 -85 94 -104 94 -272 l0 -123 -600 0
-600 0 0 123 c0 168 7 187 94 272 179 175 442 240 704 174z m1002 -1269 l0
-100 -400 0 -400 0 0 100 0 100 400 0 400 0 0 -100z"/>
</g>
</svg>
